<svg xmlns="http://www.w3.org/2000/svg" viewBox="-75 -75 150 150" width="512" height="512">
  <rect x="-75" y="-75" width="150" height="150" rx="20" fill="#0a0a0a"/>
  <path d="M-14.3,-25.2 C-11.5,-26.8 -11.4,-31.9 -10.4,-35.1 C-9.4,-38.3 -12.0,-41.6 -8.7,-43.1 C-5.3,-44.5 4.8,-44.7 8.2,-43.2 C11.6,-41.7 9.0,-38.0 10.3,-34.8 C11.6,-31.6 12.9,-26.8 15.6,-25.4 C18.4,-23.9 22.4,-26.0 25.6,-26.7 C28.8,-27.4 30.3,-31.6 33.4,-29.3 C36.5,-27.0 42.3,-17.9 42.8,-14.1 C43.3,-10.3 38.7,-10.8 36.2,-8.3 C33.7,-5.9 29.0,-3.4 28.9,-0.4 C28.8,2.6 33.5,5.7 35.8,8.2 C38.0,10.7 41.7,9.8 41.4,13.6 C41.0,17.4 36.7,27.1 33.9,29.5 C31.1,31.8 29.4,27.1 25.9,26.5 C22.4,26.0 17.3,24.9 14.5,26.4 C11.7,27.9 11.3,31.7 10.3,34.9 C9.3,38.1 12.4,42.7 8.9,44.1 C5.4,45.5 -5.6,44.4 -9.1,42.8 C-12.7,41.2 -9.8,38.1 -10.8,35.2 C-11.9,32.3 -12.2,28.3 -14.8,26.7 C-17.4,25.2 -22.1,26.0 -25.2,26.5 C-28.2,27.1 -28.9,31.9 -31.8,29.7 C-34.8,27.5 -40.9,18.1 -41.7,14.3 C-42.4,10.4 -38.1,10.9 -36.1,8.3 C-34.1,5.7 -30.5,2.7 -30.5,-0.3 C-30.5,-3.3 -34.0,-5.8 -36.2,-8.3 C-38.4,-10.8 -43.5,-10.2 -42.8,-14.1 C-42.1,-18.0 -35.4,-27.9 -32.4,-30.1 C-29.3,-32.4 -29.0,-27.5 -25.7,-26.6 C-22.5,-25.7 -17.0,-23.7 -14.3,-25.2Z" fill="none" stroke="#c9a227" stroke-width="4.5" stroke-linecap="round" stroke-linejoin="round"/>
  <path d="M0.0,-11.5 C2.4,-11.4 3.6,-11.2 5.7,-10.0 C7.9,-8.9 9.5,-7.8 10.8,-5.8 C12.0,-3.8 11.9,-2.4 11.8,0.0 C11.8,2.4 11.6,4.3 10.4,6.4 C9.3,8.4 8.1,9.2 6.0,10.3 C3.9,11.3 2.5,11.6 0.0,11.5 C-2.5,11.5 -4.3,11.3 -6.3,10.2 C-8.4,9.1 -9.2,8.2 -10.2,6.1 C-11.3,4.1 -11.3,2.4 -11.4,0.0 C-11.6,-2.4 -11.9,-3.8 -10.9,-5.9 C-9.9,-8.0 -8.5,-9.3 -6.4,-10.4 C-4.2,-11.6 -2.4,-11.6 0.0,-11.5Z" fill="none" stroke="#c9a227" stroke-width="4.0" stroke-linecap="round" stroke-linejoin="round"/>
</svg>